<svg width="157" height="48" viewBox="0 0 157 48" fill="none" xmlns="http://www.w3.org/2000/svg">
<g id="onfly-footer.svg" clip-path="url(#clip0_15_6)">
<path id="Vector" d="M0.640015 27.4199V21.7301C0.640015 16.7061 3.02776 11.8032 11.8441 11.8032C20.6604 11.8032 23.0482 16.7061 23.0482 21.7301V27.4199C23.0482 32.4438 20.6604 37.3467 11.8441 37.3467C3.02776 37.3467 0.640015 32.4438 0.640015 27.4199ZM15.7012 27.6015V21.5485C15.7012 19.2484 14.4767 17.9167 11.8441 17.9167C9.21144 17.9167 7.98695 19.2484 7.98695 21.5485V27.662C7.98695 29.9621 9.21144 31.2938 11.8441 31.2938C14.4767 31.2938 15.7012 29.9016 15.7012 27.6015Z" fill="#3C3B3B"/>
<path id="Vector_2" d="M42.8234 36.802V20.6406C42.8234 19.551 42.3336 18.8852 41.0478 18.8852C39.7621 18.8852 37.2519 19.7932 35.7213 20.6406V36.8625H28.3744V12.348H33.8234L34.558 14.2244C37.6805 12.7717 41.0478 11.9848 44.4764 11.8638C48.7009 11.8638 50.1703 14.9508 50.1703 19.7326V36.8625H42.8234V36.802Z" fill="#3C3B3B"/>
<path id="Vector_3" d="M70.7422 7.62685C69.7626 7.44526 68.783 7.3242 67.8034 7.3242C65.4769 7.3242 65.2932 8.35321 65.2932 9.92698V12.7719H70.8646L70.3749 18.7038H65.3544V36.7416H58.0075V18.7643H54.2728V12.8324H58.0075V9.14009C58.0075 4.11613 60.3953 1.27124 66.3953 1.27124C68.1708 1.27124 69.9463 1.45283 71.6606 1.93707L70.7422 7.62685ZM75.334 36.8021V2.30024L82.681 1.27124V36.8021H75.334Z" fill="#4393D0"/>
<path id="Vector_4" d="M93.2726 46.729L96.1502 36.8626H93.8236L86.2318 12.3481H93.64L98.6604 29.7201L103.681 12.3481H111.089L103.313 36.8626L100.13 46.729H93.2726Z" fill="#4393D0"/>
<path id="Vector_5" fill-rule="evenodd" clip-rule="evenodd" d="M153.701 7.68726L152.415 7.38461L149.477 0.423707L147.824 0L148.681 6.47667L144.456 5.44767L143.538 3.14754L142.069 2.78436L142.436 5.32661C130.681 2.54224 118.864 9.74527 116.109 21.367C113.293 32.9886 120.579 44.6709 132.334 47.3947C133.987 47.7579 135.701 48 137.354 48C138.273 48 139.13 47.9395 140.048 47.8184C139.681 47.8184 139.375 47.8184 139.069 47.8184C127.252 48.5448 117.089 39.6469 116.354 27.9647C115.62 16.2825 124.62 6.23455 136.436 5.5082C137.293 5.44767 138.15 5.44767 139.069 5.5082C140.109 5.5082 141.211 5.56873 142.252 5.75032L142.375 5.81084L140.722 7.86885L142.191 8.23203L144.15 6.71879L148.252 7.92938L145.864 11.0769C137.354 6.96091 127.007 10.4716 122.844 18.8852C118.681 27.2989 122.232 37.5284 130.742 41.6444C139.252 45.7604 149.538 42.3707 153.701 33.8966C157.497 26.2093 154.926 16.9483 147.701 12.227L151.864 9.07944L153.15 9.44262C154.436 9.74527 156.334 10.169 156.518 9.44262C156.824 8.59521 154.926 8.05044 153.701 7.68726ZM133.987 11.4401C132.701 13.0744 131.66 14.8903 130.803 16.7667C129.701 16.2219 128.66 15.6166 127.681 14.8903C129.518 13.256 131.66 12.1059 133.987 11.4401ZM126.701 15.9193C127.803 16.7667 129.028 17.4931 130.313 18.0984C129.456 20.5195 128.966 23.1223 128.844 25.7251H122.599C122.783 22.0328 124.191 18.5826 126.701 15.9193ZM122.599 27.1173H128.844C128.905 29.72 129.395 32.3228 130.313 34.8045C129.089 35.4704 127.926 36.2573 126.885 37.1652C124.313 34.3808 122.783 30.8096 122.599 27.1173ZM127.987 38.0731C128.905 37.2863 129.885 36.6204 130.926 36.0757C131.722 37.9521 132.824 39.7074 134.048 41.3417C131.783 40.7364 129.701 39.5864 127.987 38.0731ZM137.599 41.947C137.109 41.947 136.681 41.8865 136.191 41.826C134.477 39.9496 133.13 37.831 132.089 35.4704C133.803 34.744 135.701 34.3203 137.538 34.2598V41.947H137.599ZM137.599 32.8676C135.518 32.9281 133.497 33.4124 131.599 34.1992C130.803 31.8991 130.313 29.5385 130.252 27.1173H137.599V32.8676ZM137.599 25.6646H130.252C130.313 23.2434 130.803 20.8827 131.599 18.5826C133.497 19.309 135.518 19.7327 137.599 19.7932V25.6646ZM137.599 18.401C135.701 18.3405 133.864 17.9773 132.15 17.3115C133.13 15.0113 134.538 12.8928 136.191 11.0164C136.681 10.9559 137.109 10.8953 137.599 10.8953V18.401ZM139.069 10.8348C139.558 10.8348 139.987 10.8953 140.477 10.9559C142.191 12.8323 143.538 14.9508 144.518 17.3115C142.742 17.9773 140.905 18.3405 139.069 18.401V10.8348ZM139.069 19.8537C141.15 19.7932 143.171 19.3695 145.069 18.6431C145.864 20.9433 146.293 23.3039 146.354 25.7251H139.007L139.069 19.8537ZM139.069 27.1173H146.415C146.354 29.5385 145.926 31.8991 145.069 34.1992C143.171 33.4124 141.15 32.9886 139.069 32.8676V27.1173ZM139.069 41.947V34.2598C140.966 34.3203 142.803 34.744 144.518 35.4704C143.538 37.7705 142.13 39.9496 140.415 41.826C139.926 41.8865 139.497 41.8865 139.069 41.947ZM142.62 41.3417C143.905 39.7074 144.946 37.9521 145.742 36.0757C146.783 36.6204 147.762 37.2863 148.681 38.0731C146.966 39.5864 144.885 40.7364 142.62 41.3417ZM149.722 37.1047C148.681 36.1967 147.517 35.4098 146.293 34.744C147.211 32.2623 147.701 29.72 147.762 27.0567H154.007C153.885 30.8096 152.354 34.3808 149.722 37.1047ZM154.069 25.6646H147.762C147.701 23.0618 147.211 20.5195 146.354 18.0984C147.64 17.4931 148.864 16.7667 149.966 15.9193C152.415 18.5826 153.885 22.0328 154.069 25.6646ZM148.926 14.8903C147.946 15.6166 146.905 16.2219 145.803 16.7667C145.007 14.8903 143.905 13.0744 142.62 11.4401C143.415 11.6822 144.15 11.9243 144.946 12.2875L144.273 13.1955L145.926 13.6192L146.599 13.1349C147.395 13.6797 148.191 14.2245 148.926 14.8903Z" fill="#3C3B3B"/>
</g>
<defs>
<clipPath id="clip0_15_6">
<rect width="156" height="48" fill="white" transform="translate(0.640015)"/>
</clipPath>
</defs>
</svg>
